<svg xmlns="http://www.w3.org/2000/svg" viewBox="0 0 147 82"><style>path{fill:#111110}@media(prefers-color-scheme:dark){path{fill:#fdfdf9}}</style><path d="M50.00,81.07C34.69,78.83 24.33,74.21 20.64,67.97C15.84,59.84 16.66,53.22 23.80,42.53L28.50,35.50L17.00,35.49C4.49,35.48 1.43,34.57 0.41,30.50C-0.51,26.83 2.83,22.29 12.22,14.44C16.77,10.63 21.69,6.28 23.15,4.76C24.71,3.13 26.87,2.00 28.40,2.00C30.94,2.00 31.40,2.74 31.06,6.18C30.94,7.40 32.43,8.35 36.41,9.60L41.92,11.34L58.21,7.71C85.29,1.67 92.54,0.60 106.50,0.60C117.66,0.61 120.32,0.93 125.26,2.88C133.25,6.03 138.00,10.67 138.00,15.33C138.00,19.15 136.06,21.00 132.07,21.00C129.59,21.00 129.47,20.24 131.58,17.91C133.92,15.33 132.02,12.65 125.67,9.54C114.79,4.22 97.72,5.16 62.68,13.01C52.88,15.20 43.34,17.00 41.48,17.00C39.61,17.00 35.12,15.92 31.48,14.60L24.86,12.20L19.18,16.98C16.06,19.61 11.93,23.45 10.00,25.51L6.50,29.25L24.50,28.53C55.66,27.29 52.51,27.09 52.46,30.25C52.44,31.76 52.89,33.00 53.46,33.00C54.03,33.00 62.07,32.07 71.32,30.93C88.96,28.76 91.00,28.98 91.00,33.00C91.00,35.15 94.17,36.49 103.99,38.52C115.59,40.92 115.79,42.63 104.58,43.67C96.29,44.45 89.77,42.71 86.52,38.85L84.10,35.97L67.52,38.00C49.81,40.16 46.81,39.99 44.45,36.64C43.26,34.95 42.77,34.78 42.10,35.86C41.58,36.69 40.46,36.96 39.20,36.56C34.82,35.17 24.00,50.33 24.00,57.85C24.00,65.56 31.70,70.89 46.60,73.49C56.56,75.23 79.37,75.48 89.00,73.96C96.23,72.82 107.41,69.40 110.53,67.37C112.05,66.39 113.95,66.28 118.03,66.94C125.21,68.10 131.72,66.68 136.23,62.97C145.21,55.56 141.53,47.27 129.16,47.06C126.63,47.01 125.69,47.49 125.29,49.00C124.57,51.76 122.38,51.50 120.37,48.44C118.76,45.98 118.78,45.77 120.87,43.69C122.70,41.85 124.14,41.51 129.78,41.57C140.98,41.69 147.00,46.38 147.00,54.98C147.00,58.61 146.32,60.63 144.07,63.74C137.84,72.34 122.11,76.42 115.12,71.25L112.12,69.03L109.31,71.38C105.23,74.79 99.40,77.50 92.00,79.43C84.60,81.37 58.88,82.37 50.00,81.07ZM86.19,68.25C86.44,66.91 88.53,66.11 95.01,64.84C99.68,63.93 103.64,63.32 103.82,63.50C104.56,64.21 101.43,67.94 99.26,68.93C97.96,69.52 94.42,70.00 91.38,70.00C86.66,70.00 85.90,69.75 86.19,68.25ZM125.09,62.05C124.33,61.59 123.99,60.48 124.32,59.60C124.66,58.72 124.50,58.00 123.97,58.00C122.18,58.00 122.98,54.14 124.89,53.53C127.38,52.75 135.00,55.82 135.00,57.61C135.00,58.37 134.02,59.00 132.81,59.00C131.61,59.00 129.69,59.88 128.55,60.95C127.19,62.23 125.99,62.61 125.09,62.05ZM74.67,61.33C74.30,60.97 74.00,59.37 74.00,57.79C74.00,52.67 81.77,47.35 83.32,51.40C85.18,56.23 77.90,64.57 74.67,61.33ZM53.00,59.29C47.42,57.24 46.53,52.42 51.03,48.63C56.69,43.87 64.00,44.22 64.00,49.25C64.00,50.94 63.53,51.16 60.99,50.65C57.57,49.96 53.00,51.67 53.00,53.63C53.00,54.36 54.36,55.65 56.03,56.52C60.50,58.83 57.99,61.12 53.00,59.29ZM34.67,54.33C33.38,53.05 34.02,50.66 36.55,47.34C39.58,43.37 42.53,42.98 43.39,46.42C44.23,49.78 43.24,51.83 39.93,53.54C36.80,55.16 35.66,55.33 34.67,54.33Z" fill="#000" fill-rule="evenodd"/></svg>